<?xml version="1.0" encoding="UTF-8"?>
<svg width="14px" height="14px" viewBox="0 0 14 14" version="1.1" xmlns="http://www.w3.org/2000/svg" xmlns:xlink="http://www.w3.org/1999/xlink">
    <!-- Generator: Sketch 59 (86127) - https://sketch.com -->
    <title>icon/超时_1</title>
    <desc>Created with Sketch.</desc>
    <g id="最终稿" stroke="none" stroke-width="1" fill="none" fill-rule="evenodd">
        <g id="视频标注-视频标注查询-未标列表" transform="translate(-519.000000, -411.000000)">
            <rect fill="#F0F2F5" x="0" y="0" width="1440" height="1100"></rect>
            <rect id="Rectangle-5" fill="#FFFFFF" x="244" y="100" width="1172" height="956"></rect>
            <g id="编组-9备份-2" transform="translate(244.000000, 336.000000)">
                <g id="表格/文字/黑备份-8" transform="translate(50.000000, 55.000000)">
                    <rect id="矩形" x="0" y="0" width="254" height="54"></rect>
                </g>
            </g>
            <g id="icon/超时_2" transform="translate(519.000000, 411.000000)">
                <g id="编组-3" transform="translate(0.000000, 0.200000)">
                    <path d="M7,1 C10.3137085,1 13,3.6862915 13,7 C13,7.4798422 12.9436724,7.94652839 12.8372686,8.39380708 C12.5694839,8.15452132 12.2657403,7.95556933 11.9346501,7.80659509 C11.9778504,7.54419076 12,7.27468204 12,7 C12,4.23857625 9.76142375,2 7,2 C4.23857625,2 2,4.23857625 2,7 C2,9.76142375 4.23857625,12 7,12 L7.14429551,11.9978341 C7.24824159,12.3479313 7.40548212,12.6751034 7.60661337,12.9699467 C7.40721637,12.9897385 7.20480654,13 7,13 C3.6862915,13 1,10.3137085 1,7 C1,3.6862915 3.6862915,1 7,1 Z" id="路径" fill="#F5A623" fill-rule="nonzero"></path>
                    <rect id="矩形备份-13" stroke="#F5A623" fill="#F54B4B" transform="translate(12.000000, 2.000000) rotate(-225.000000) translate(-12.000000, -2.000000) " x="12" y="0.5" width="1" height="3"></rect>
                    <rect id="矩形备份-14" fill="#F5A623" transform="translate(2.000000, 2.000000) scale(-1, 1) rotate(-225.000000) translate(-2.000000, -2.000000) " x="1.5" y="0" width="1" height="4"></rect>
                    <polygon id="路径" fill="#F5A623" fill-rule="nonzero" points="4.44907519 8.26435874 4.83780837 8.96356294 7.4 7.53907363 7.4 3.18446617 6.6 3.18446617 6.6 7.06851946"></polygon>
                    <path d="M10.5,8.5 C11.8807119,8.5 13,9.61928813 13,11 C13,12.3807119 11.8807119,13.5 10.5,13.5 C9.11928813,13.5 8,12.3807119 8,11 C8,9.61928813 9.11928813,8.5 10.5,8.5 Z M10.5,11.895798 C10.2238576,11.895798 10,12.1196557 10,12.395798 C10,12.6719404 10.2238576,12.895798 10.5,12.895798 C10.7761424,12.895798 11,12.6719404 11,12.395798 C11,12.1196557 10.7761424,11.895798 10.5,11.895798 Z M11,9.28611224 L10,9.28611224 L10.232233,11.5 L10.7845171,11.5 L11,9.28611224 Z" id="形状结合" fill="#F5A623"></path>
                </g>
            </g>
        </g>
    </g>
</svg>