<svg xmlns="http://www.w3.org/2000/svg" xmlns:xlink="http://www.w3.org/1999/xlink" fill="none" version="1.1" width="25" height="22" viewBox="0 0 25 22"><g style="mix-blend-mode:passthrough"><g><g style="mix-blend-mode:passthrough"><path d="M14.6511,12.4194Q14.6934,12.5047,14.7301,12.5926Q14.7668,12.6804,14.7979,12.7704Q14.829,12.8604,14.8543,12.9521Q14.8796,13.0439,14.8991,13.1371Q14.9185,13.2303,14.932,13.3245Q14.9455,13.4188,14.953,13.5137Q14.9605,13.6086,14.962,13.7038Q14.9635,13.799,14.9589,13.8941Q14.9543,13.9892,14.9437,14.0838Q14.9331,14.1784,14.9166,14.2722Q14.9,14.3659,14.8775,14.4584Q14.855,14.5509,14.8267,14.6418Q14.7984,14.7327,14.7644,14.8216Q14.7304,14.9106,14.6908,14.9972Q14.6513,15.0837,14.6063,15.1676Q14.5613,15.2516,14.5111,15.3324Q14.4609,15.4133,14.4056,15.4909Q14.3504,15.5684,14.2903,15.6423Q14.2303,15.7161,14.1656,15.7861Q14.101,15.856,14.0321,15.9217Q13.9632,15.9873,13.8903,16.0485Q13.8173,16.1097,13.7406,16.1661Q13.664,16.2226,13.5839,16.274Q13.5038,16.325499999999998,13.4206,16.3718Q13.3374,16.418,13.2514,16.4589Q13.1654,16.4999,13.077,16.5352Q12.9887,16.5706,12.8982,16.6003Q12.8077,16.630000000000003,12.7156,16.6539Q12.6234,16.677799999999998,12.53,16.6958Q12.4365,16.7138,12.342,16.7259Q12.2476,16.7379,12.1526,16.744Q12.0576,16.75,11.9624,16.75L6.03764,16.75Q5.94243,16.75,5.84742,16.744Q5.75241,16.7379,5.65797,16.7259Q5.56353,16.7138,5.47005,16.6958Q5.37656,16.677799999999998,5.28441,16.6539Q5.19225,16.630000000000003,5.1018,16.6003Q5.01135,16.5706,4.92296,16.5352Q4.83457,16.4999,4.7486,16.4589Q4.66264,16.418,4.57944,16.3718Q4.49624,16.325499999999998,4.41614,16.274Q4.33604,16.2226,4.25936,16.1661Q4.18269,16.1097,4.10974,16.0485Q4.0368,15.9873,3.96788,15.9217Q3.89897,15.856,3.83435,15.7861Q3.76974,15.7161,3.70969,15.6423Q3.64964,15.5684,3.59439,15.4909Q3.53915,15.4133,3.48893,15.3324Q3.43871,15.2516,3.39373,15.1676Q3.34874,15.0837,3.30916,14.9972Q3.26958,14.9106,3.23557,14.8216Q3.20156,14.7327,3.17326,14.6418Q3.14496,14.5509,3.12248,14.4584Q3.1,14.3659,3.08343,14.2722Q3.06686,14.1784,3.05626,14.0838Q3.04567,13.9892,3.0411,13.8941Q3.03653,13.799,3.03799,13.7038Q3.03946,13.6086,3.04696,13.5137Q3.05446,13.4188,3.06796,13.3245Q3.08146,13.2303,3.10091,13.1371Q3.12036,13.0439,3.14568,12.9521Q3.171,12.8604,3.20209,12.7704Q3.23317,12.6804,3.26991,12.5926Q3.30664,12.5047,3.34886,12.4194L6.31123,6.43328Q6.35745,6.33987,6.41005,6.24989Q6.46265,6.15991,6.52136,6.0738Q6.58007,5.98769,6.64462,5.90586Q6.70917,5.82404,6.77924,5.74688Q6.84932,5.66973,6.92457,5.59763Q6.99983,5.52553,7.07991,5.45882Q7.15999,5.39212,7.2445,5.33113Q7.32902,5.27014,7.41756,5.21517Q7.50611,5.16019,7.59825,5.1115Q7.6904,5.0628,7.7857,5.02061Q7.88101,4.9784299999999995,7.97901,4.942959999999999Q8.07701,4.90749,8.17723,4.8789Q8.27746,4.85032,8.37943,4.82876Q8.4814,4.8072,8.58462,4.79277Q8.68783,4.77834,8.79181,4.77111Q8.89578,4.76387,9,4.76387Q9.10422,4.76387,9.20819,4.77111Q9.31216,4.77834,9.41538,4.79277Q9.5186,4.8072,9.62057,4.82876Q9.72254,4.85032,9.82276,4.8789Q9.92299,4.90749,10.021,4.942959999999999Q10.119,4.9784299999999995,10.2143,5.02061Q10.3096,5.0628,10.4017,5.1115Q10.4939,5.16019,10.5824,5.21517Q10.671,5.27014,10.7555,5.33113Q10.84,5.39212,10.9201,5.45882Q11.0002,5.52553,11.0754,5.59763Q11.1507,5.66973,11.2208,5.74688Q11.2908,5.82404,11.3554,5.90586Q11.4199,5.98769,11.4786,6.0738Q11.5374,6.15991,11.5899,6.24989Q11.6425,6.33987,11.6888,6.43328L14.6511,12.4194Z" fill="#28960F" fill-opacity="1"/></g><g style="mix-blend-mode:passthrough"><path d="M21.8654,12.4798Q21.9053,12.5651,21.939700000000002,12.6527Q21.9741,12.7403,22.003,12.8299Q22.0319,12.9196,22.0551,13.0108Q22.0783,13.1021,22.0957,13.1946Q22.1132,13.2871,22.1248,13.3806Q22.1363,13.474,22.1421,13.568Q22.1478,13.662,22.1476,13.7561Q22.147399999999998,13.8503,22.1413,13.9442Q22.135199999999998,14.0382,22.1232,14.1316Q22.1112,14.225,22.093400000000003,14.3174Q22.0756,14.4099,22.0521,14.501Q22.0285,14.5922,21.999200000000002,14.6817Q21.97,14.7712,21.935200000000002,14.8587Q21.900399999999998,14.9462,21.8602,15.0313Q21.82,15.1165,21.7745,15.1989Q21.729,15.2814,21.6785,15.3608Q21.6279,15.4402,21.572499999999998,15.5163Q21.517,15.5924,21.456899999999997,15.6649Q21.3968,15.7374,21.3323,15.806Q21.2678,15.8745,21.1991,15.9389Q21.1304,16.0033,21.0578,16.063299999999998Q20.9852,16.1232,20.909,16.1785Q20.832700000000003,16.233800000000002,20.7532,16.2842Q20.6737,16.334600000000002,20.5911,16.3799Q20.5086,16.4252,20.4234,16.4652Q20.3382,16.505200000000002,20.2506,16.5399Q20.163,16.5745,20.0735,16.6035Q19.9839,16.6326,19.892699999999998,16.656Q19.8015,16.6794,19.709,16.697Q19.616500000000002,16.7146,19.5231,16.726399999999998Q19.4297,16.7382,19.3357,16.7441Q19.2417,16.75,19.1476,16.75L13.852409999999999,16.75Q13.75826,16.75,13.664290000000001,16.7441Q13.570319999999999,16.7382,13.4769,16.726399999999998Q13.383479999999999,16.7146,13.29099,16.697Q13.1985,16.6794,13.107289999999999,16.656Q13.01609,16.6326,12.92653,16.6035Q12.83697,16.5745,12.749410000000001,16.5399Q12.66184,16.505200000000002,12.57663,16.4652Q12.49141,16.4252,12.40887,16.3799Q12.326329999999999,16.334600000000002,12.24679,16.2842Q12.167259999999999,16.233800000000002,12.09104,16.1785Q12.01482,16.1232,11.942219999999999,16.063299999999998Q11.86962,16.0033,11.80092,15.9389Q11.73221,15.8745,11.66769,15.806Q11.603159999999999,15.7374,11.54306,15.6649Q11.48296,15.5924,11.42752,15.5163Q11.37209,15.4402,11.32153,15.3608Q11.27098,15.2814,11.2255,15.1989Q11.18003,15.1165,11.13981,15.0313Q11.0996,14.9462,11.0648,14.8587Q11.03,14.7712,11.00076,14.6817Q10.97152,14.5922,10.94795,14.501Q10.92438,14.4099,10.90657,14.3174Q10.88876,14.225,10.87678,14.1316Q10.864799999999999,14.0382,10.85871,13.9442Q10.85261,13.8503,10.85242,13.7561Q10.85223,13.662,10.85794,13.568Q10.86365,13.474,10.87525,13.3806Q10.88684,13.2871,10.90427,13.1946Q10.921710000000001,13.1021,10.94491,13.0108Q10.96811,12.9196,10.99698,12.8299Q11.02586,12.7403,11.0603,12.6527Q11.09474,12.5651,11.13461,12.4798L13.78219,6.815Q13.827210000000001,6.71868,13.87893,6.62579Q13.93065,6.5329,13.98882,6.44391Q14.046990000000001,6.35492,14.11131,6.27026Q14.17563,6.18561,14.24579,6.10572Q14.315940000000001,6.02583,14.39157,5.95111Q14.4672,5.87639,14.54794,5.80721Q14.62867,5.73803,14.714089999999999,5.67474Q14.799520000000001,5.61145,14.88921,5.55436Q14.978909999999999,5.49728,15.072420000000001,5.44668Q15.16593,5.39609,15.26278,5.35224Q15.359639999999999,5.3084,15.45935,5.27152Q15.55907,5.23464,15.66115,5.20491Q15.76322,5.17518,15.867149999999999,5.15275Q15.971070000000001,5.13033,16.07633,5.11531Q16.18158,5.1003,16.28763,5.09277Q16.39368,5.08524,16.5,5.08524Q16.60632,5.08524,16.71237,5.09277Q16.81842,5.1003,16.92367,5.11531Q17.028930000000003,5.13033,17.132849999999998,5.15275Q17.23678,5.17518,17.33885,5.20491Q17.44093,5.23464,17.54065,5.27152Q17.64036,5.3084,17.73722,5.35224Q17.83407,5.39609,17.92758,5.44668Q18.0211,5.49728,18.110799999999998,5.55436Q18.200499999999998,5.61145,18.285899999999998,5.67474Q18.371299999999998,5.73803,18.4521,5.80721Q18.5328,5.87639,18.6084,5.95111Q18.6841,6.02583,18.7542,6.10572Q18.8244,6.18561,18.8887,6.27026Q18.953,6.35492,19.011200000000002,6.44391Q19.0693,6.5329,19.1211,6.62579Q19.172800000000002,6.71868,19.2178,6.815L21.8654,12.4798Z" fill="#235DE4" fill-opacity="1"/></g><g style="mix-blend-mode:passthrough"><ellipse cx="13" cy="3" rx="3" ry="3" fill="#F1371B" fill-opacity="1"/></g></g></g></svg>