<svg t="1685448266472" class="icon" viewBox="0 0 1024 1024" version="1.1" xmlns="http://www.w3.org/2000/svg" p-id="1057" width="128" height="128"><path d="M459.791429 225.298256c0 69.574588 0 139.126664 0 208.701253 0 8.589632-0.048095 8.613168-8.612145 8.613168-139.127687 0-278.251282 0-417.376922 0-8.590656 0-8.639774-0.023536-8.639774-8.590656 0-139.149177 0-278.275841 0-417.401482 0-8.566096 0.051165-8.614192 8.614192-8.614192 139.151223 0 278.253328 0 417.402505 0 8.56405 0 8.612145 0.048095 8.612145 8.614192C459.791429 86.171592 459.791429 155.723667 459.791429 225.298256M93.877599 225.298256c0 46.883797 0.121773 93.793176-0.148379 140.652414-0.025583 6.374174 1.723248 8.121981 8.072863 8.096399 93.322455-0.221034 186.699146-0.221034 280.022625 0 6.349615 0.024559 8.098445-1.648546 8.072863-8.072863-0.194428-93.299943-0.194428-186.673563 0-279.998065 0.025583-6.350638-1.673106-8.097422-8.072863-8.072863-93.321432 0.195451-186.646957 0.195451-279.972483 0-6.349615-0.024559-8.148587 1.673106-8.098445 8.072863C93.999372 132.415822 93.877599 178.857551 93.877599 225.298256" p-id="1058"></path><path d="M424.106696 799.300378c0-69.351508 0-138.707109 0-208.011544 0-8.614192 0.048095-8.661264 8.588609-8.661264 29.484521 0 58.991556 0.147356 88.475054-0.100284 5.808286-0.050142 7.435343 1.573845 7.40669 7.383154-0.148379 139.54315-0.148379 279.087323 0 418.632519 0 5.760191-1.474584 7.532557-7.356548 7.482415-29.927613-0.294712-59.878762-0.294712-89.829911 0-5.783727 0.051165-7.384178-1.573845-7.384178-7.432273C424.204933 938.843528 424.106696 869.046882 424.106696 799.300378" p-id="1059"></path><path d="M894.295428 269.474384c0 28.672016 0 57.343009-0.021489 85.99149l0.148379-0.148379c-26.825972 0.048095-53.702086 0.195451-80.577177 0-5.142114 0-6.791683 1.475608-6.741541 6.718005 0.220011 24.635073-0.023536 49.295729 0.195451 73.955362 0.050142 5.218862-1.576915 6.744611-6.743588 6.693446-53.702086-0.147356-107.451244-0.147356-161.154353 0-5.290493 0.051165-6.715959-1.6465-6.66991-6.766101 0.224104-26.850531 0.148379-53.702086 0.173962-80.552617l-0.148379 0.148379c26.356274-0.048095 52.716642-0.295735 79.07394 0.099261 6.867408 0.099261 8.339946-2.042519 8.318456-8.565073-0.222057-54.881958-0.102331-109.814058-0.073678-164.745135l-0.148379 0.148379c29.112038 0 58.228169 0 87.343277 0l-0.148379-0.148379c0.023536 26.77583 0.176009 53.553707-0.046049 80.306001-0.023536 5.487991 1.572822 7.111978 7.060813 7.063883 26.754341-0.246617 53.55166-0.050142 80.308047-0.025583L894.295428 269.474384z" p-id="1060"></path><path d="M511.276011 529.810644c-164.448376 0-328.875263 0-493.348198-0.050142-11.026124 0-9.79304 1.130753-9.893324-9.894348-0.050142-6.374174 0.171915-12.798491-0.050142-19.147082-0.147356-4.03592 1.427512-5.659907 5.365194-5.265934 1.77032 0.146333 3.543709 0 5.290493 0 328.877309 0 657.775084 0 986.676953 0 1.329275 0 2.65855 0.146333 3.939729-0.050142 5.192256-0.689708 7.014764 1.452071 6.743588 6.66991-0.367367 7.456832-0.245593 14.96483-0.052189 22.469758 0.125867 4.03592-1.451048 5.611811-5.38873 5.26798-1.746784-0.172939-3.518127 0-5.26798 0C840.619948 529.810644 675.949514 529.810644 511.276011 529.810644" p-id="1061"></path><path d="M632.905162 182.450379c-0.025583-26.875091-0.173962-53.701063 0-80.576153 0.050142-5.119601-1.379417-6.817266-6.671956-6.768147-24.659633 0.245593-49.296753-0.023536-73.979922 0.196475-5.192256 0.049119-6.767124-1.550309-6.716982-6.718005 0.220011-24.660656 0.245593-49.320289 0-73.980945-0.050142-5.242398 1.648546-6.693446 6.743588-6.693446 82.787518 0.146333 165.582199 0.146333 248.347205 0 5.290493 0 6.695492 1.673106 6.64535 6.767124-0.220011 26.876114-0.12382 53.726645-0.149403 80.600713l0.149403-0.148379c-26.77583 0.024559-53.553707 0.172939-80.306001-0.048095-5.464455-0.024559-7.113001 1.574868-7.062859 7.039323 0.222057 26.77583 0.050142 53.552683 0.023536 80.329537l0.148379-0.148379c-29.114085 0-58.202587 0-87.318718 0L632.905162 182.450379z" p-id="1062"></path><path d="M807.123043 95.277994c26.851555-0.048095 53.727669-0.195451 80.553641 0 5.120624 0.050142 6.867408-1.37737 6.817266-6.668886-0.245593-24.635073 0.025583-49.320289-0.222057-73.955362-0.073678-5.192256 1.524726-6.79373 6.719028-6.743588 24.217564 0.245593 48.435129 0.245593 72.652693 0 5.242398-0.073678 6.716982 1.623987 6.691399 6.743588-0.146333 82.790588-0.146333 165.583223 0.025583 248.348228 0 5.291516-1.723248 6.718005-6.817266 6.670933-26.408463-0.246617-52.813856-0.149403-79.247902-0.197498l0.149403 0.148379c-0.023536-26.753317-0.173962-53.553707 0.048095-80.306001 0.050142-5.463432-1.600451-7.063883-7.062859-7.063883-26.752294 0.246617-53.530171 0.099261-80.308047 0.050142l0.148379 0.148379L807.270399 95.129614 807.123043 95.277994z" p-id="1063"></path><path d="M702.848141 798.61067c0-69.15708 0-138.262994 0-207.369931 0-8.566096 0.023536-8.613168 8.591679-8.613168 17.622356 0 35.218106 0.243547 52.840462-0.100284 5.881964-0.148379 7.383154 1.673106 7.358595 7.433296-0.199545 47.103808-0.12382 94.209662-0.12382 141.316539 0 91.996251 0 184.04162 0 275.986705 0 8.614192-0.023536 8.614192-8.591679 8.664334-17.620309 0-35.240619-0.295735-52.809763 0.097214-5.909593 0.149403-7.387247-1.673106-7.387247-7.432273C702.921819 938.597935 702.848141 868.555695 702.848141 798.61067" p-id="1064"></path><path d="M181.047937 799.250236c0 69.306482 0 138.65799 0 208.011544 0 8.614192-0.022513 8.614192-8.563026 8.614192-17.623379 0.050142-35.243689-0.245593-52.813856 0.147356-5.858428 0.100284-7.433296-1.623987-7.433296-7.432273 0.24457-45.776579 0.148379-91.552136 0.148379-137.329738 0-93.127004 0-186.205912 0-279.334963 0-9.301853 0-9.301853 9.203616-9.301853 17.400299 0 34.800597 0.24457 52.17429-0.099261 5.832845-0.148379 7.433296 1.623987 7.433296 7.383154C180.975283 659.706063 181.047937 729.45359 181.047937 799.250236" p-id="1065"></path><path d="M668.490635 799.398616c0 69.304436 0 138.65799 0 208.010521 0 8.465812-0.021489 8.465812-8.683776 8.465812-12.329816 0.050142-24.687262-0.445138-36.992519 0.196475-6.888897 0.293689-7.232728-2.954285-7.232728-8.270361 0.121773-101.248985 0.098237-202.500017 0.098237-303.749002 0-37.849026 0.148379-75.703169-0.171915-113.554242-0.050142-6.545066 1.918699-8.220219 8.194636-8.023744 12.527314 0.490164 25.104771 0.490164 37.630039 0 6.053879-0.196475 7.284917 1.969864 7.284917 7.580652C668.44254 659.854443 668.490635 729.60197 668.490635 799.398616" p-id="1066"></path><path d="M632.905162 355.366613c-26.801413 0-53.629431-0.048095-80.429821 0.148379-4.872984 0.050142-6.965645-0.983397-6.939039-6.496971 0.195451-53.405327 0.195451-106.812701 0-160.218028-0.025583-5.51255 2.067079-6.54609 6.939039-6.496971 26.799366 0.196475 53.627385 0.12382 80.429821 0.148379l-0.148379-0.148379 0 173.21197L632.905162 355.366613z" p-id="1067"></path><path d="M963.059558 799.250236c0 69.353554 0 138.65799 0 208.060663 0 8.565073-0.023536 8.565073-8.588609 8.615215-6.841825 0-13.659091-0.197498-20.476357 0.047072-4.036943 0.101307-5.659907-1.475608-5.265934-5.41329 0.12382-1.329275 0-2.65855 0-3.938706 0-138.26197 0-276.479939 0-414.694837 0-9.30083 0-9.30083 9.253758-9.30083 6.815219 0 13.632485 0.147356 20.476357 0 3.421936-0.100284 4.800329 1.329275 4.600785 4.673439-0.121773 1.968841 0 3.939729 0 5.954619C963.059558 661.921521 963.059558 730.587414 963.059558 799.250236" p-id="1068"></path><path d="M858.709955 799.939945c0 69.106937 0 138.214898 0 207.370954 0 8.565073-0.023536 8.565073-8.588609 8.565073-6.843872 0-13.661138-0.149403-20.478404 0.050142-4.059456 0.148379-5.659907-1.379417-5.290493-5.366218 0.148379-1.279133 0.021489-2.65855 0.021489-3.986801 0-138.212852-0.021489-276.43082-0.021489-414.693814 0-9.252735 0.021489-9.252735 9.275247-9.252735 6.844895 0 13.632485 0.147356 20.478404 0 3.421936-0.100284 4.797259 1.329275 4.602831 4.673439-0.12382 1.968841 0 3.986801 0 5.954619C858.709955 662.119019 858.709955 731.028459 858.709955 799.939945" p-id="1069"></path><path d="M355.441826 799.300378c0-69.305459 0-138.659013 0-208.011544 0-8.614192 0.023536-8.661264 8.541537-8.661264 7.013741 0 14.101159 0.097214 21.115923 0 3.371794-0.052189 4.89652 1.226944 4.650927 4.625344-0.098237 1.526773 0 3.102664 0 4.627391 0 138.211828 0 276.43082 0 414.693814 0 9.3039 0 9.3039-9.203616 9.3039-6.79373 0.050142-13.610996-0.098237-20.450774 0.050142-3.370771 0.047072-4.89652-1.232061-4.65195-4.626367 0.147356-2.018983 0-3.986801 0-5.955642C355.441826 936.629093 355.441826 867.965248 355.441826 799.300378" p-id="1070"></path><path d="M233.911936 799.300378c0-69.351508 0-138.659013 0-208.011544 0-8.614192 0.025583-8.661264 8.541537-8.661264 7.061836 0 14.101159 0.097214 21.115923 0 3.373841-0.052189 4.898567 1.226944 4.652973 4.625344-0.100284 1.526773 0 3.102664 0 4.627391 0 138.211828 0 276.480962 0 414.693814 0 9.3039 0 9.3039-9.205663 9.354042-6.815219 0-13.634532-0.148379-20.449751 0-3.371794 0.047072-4.895497-1.281179-4.652973-4.675486 0.12382-1.969864 0-3.939729 0-5.906523C233.911936 936.629093 233.911936 867.965248 233.911936 799.300378" p-id="1071"></path><path d="M76.698335 799.840684c0 69.107961 0 138.214898 0 207.323882 0 8.713452-0.025583 8.713452-8.492418 8.713452-6.817266 0-13.632485-0.149403-20.449751 0.050142-3.9121 0.148379-5.833869-1.180895-5.414313-5.266957 0.147356-1.280156 0.048095-2.609431 0.048095-3.937682 0-138.213875-0.048095-276.479939-0.048095-414.694837 0-9.354042 0.048095-9.401114 9.153474-9.401114 5.955642 0 11.912307 0.342808 17.819854-0.100284 5.708002-0.444115 7.578606 1.327228 7.53051 7.333012-0.295735 33.867342-0.149403 67.777663-0.149403 101.6931C76.698335 727.632105 76.698335 763.712859 76.698335 799.840684" p-id="1072"></path><path d="M894.271892 355.466897c26.383904 0 52.765761 0.147356 79.126128-0.148379 5.607718-0.050142 6.989181 1.820462 6.936993 7.185656-0.243547 24.364921-0.243547 48.777937 0 73.167416 0.075725 5.464455-1.549286 7.113001-7.037277 7.063883-23.945365-0.295735-47.917336-0.245593-71.863724 0-5.344728 0.049119-7.236821-1.330298-7.186679-6.966669 0.295735-26.800389 0.148379-53.627385 0.197498-80.452333L894.271892 355.466897z" p-id="1073"></path><path d="M302.577828 226.061642c0 18.064424-0.148379 36.07973 0.149403 54.144154 0.050142 5.365194-1.820462 6.64535-6.843872 6.619768-36.128849-0.171915-72.208579-0.195451-108.286262 0.025583-5.342682 0.024559-6.64535-1.771343-6.64535-6.843872 0.197498-36.078707 0.222057-72.15946 0-108.287285-0.048095-5.316076 1.820462-6.620791 6.817266-6.596232 36.103266 0.148379 72.208579 0.197498 108.312868-0.023536 5.316076-0.023536 6.64535 1.796926 6.595208 6.816243C302.429449 189.982936 302.577828 208.020754 302.577828 226.061642" p-id="1074"></path></svg>